# xmcd
#
# Track frame offsets:
#	150
#	19935
#	33679
#	50500
#	66104
#	82497
#	106729
#	120925
#	141467
#	159375
#
# Disc length: 2368 seconds
# Revision: 0
# Processed by: cddbd v1.5.2PL0 Copyright (c) Steve Scherf et al.
# Submitted via: dBpowerAMP V12.0
#
DISCID=89093e0a
DTITLE=Joe Zaklan - There Ain't No Better Time
DYEAR=2012
DGENRE=Blues
TTITLE0=Thin Ice
TTITLE1=Chicken Bone
TTITLE2=There Ain't No Better Time
TTITLE3=Chump Change
TTITLE4=Get Ready
TTITLE5=Quiet As Kept
TTITLE6=She's Got Her Baby On Her Mind
TTITLE7=Warning Signs
TTITLE8=Drowning On Dry Land
TTITLE9=Tonight
EXTD=
EXTT0=
EXTT1=
EXTT2=
EXTT3=
EXTT4=
EXTT5=
EXTT6=
EXTT7=
EXTT8=
EXTT9=
PLAYORDER=
